Coordinates
nRows=9
nColumns=38

# SIMM Motion File Header:
name Coordinates
datacolumns 38
datarows 9
otherdata 1
range 0.81250000000000000000 0.82050000000000001000

Units are S.I. units (second, meters, Newtons, ...)
Angles are in degrees.

endheader
time	pelvis_tilt	pelvis_list	pelvis_rotation	pelvis_tx	pelvis_ty	pelvis_tz	hip_flexion_r	hip_adduction_r	hip_rotation_r	knee_angle_r	ankle_angle_r	subtalar_angle_r	mtp_angle_r	hip_flexion_l	hip_adduction_l	hip_rotation_l	knee_angle_l	ankle_angle_l	subtalar_angle_l	mtp_angle_l	lumbar_extension	lumbar_bending	lumbar_rotation	arm_flex_r	arm_add_r	arm_rot_r	elbow_flex_r	pro_sup_r	wrist_flex_r	wrist_dev_r	arm_flex_l	arm_add_l	arm_rot_l	elbow_flex_l	pro_sup_l	wrist_flex_l	wrist_dev_l
      0.81250000000000000000	     -2.44031232210233150000	      2.67472536321801210000	      2.16987278350131070000	      0.95686842638627156000	      1.04856652717477970000	     -0.31429021711923144000	    -10.63807141973275300000	      3.03632300112118840000	      1.53198913008132640000	    -56.25279871328022100000	     -6.14773814809804350000	      0.00000000000003621389	     -0.00000000000017724970	     22.07011489126167800000	      8.05910685407063450000	      1.20374030435079350000	    -11.48935660731797800000	     -7.67841092984962880000	     -0.00000000000003632921	     -0.00000000000003484767	     -5.21823363452016050000	     -0.38336142487235897000	     10.89480752300825000000	    -20.75425650750954500000	    -14.78419052527683200000	      6.59593483628744610000	    128.51677485136108000000	     79.88011445663768500000	     -0.00000000000000058384	      0.00000000000004785975	    -45.71722001159418600000	     -5.42701241873925520000	     -9.83581211949795530000	    129.38195281929279000000	     86.60410952384495400000	      0.00000000000003312380	     -0.00000000000000456038
      0.81350000000000000000	     -2.41505916119850020000	      2.67596593525862400000	      2.21010472035563140000	      0.95685653117935510000	      1.04803563819034640000	     -0.31429604606143768000	    -10.46383041342021500000	      3.04868991735492360000	      1.49229407551942980000	    -56.78883669386993900000	     -6.06881149995340860000	      0.00000000000003649254	     -0.00000000000017808401	     22.05263950509485600000	      8.10058560387984450000	      1.35513450454500810000	    -11.66922144517656400000	     -7.60222386494318240000	     -0.00000000000003648389	     -0.00000000000003501201	     -5.24919839731159590000	     -0.40758635054993525000	     10.82167767578470400000	    -20.82761868558063500000	    -14.75540694095103500000	      6.51674397081929420000	    128.38798876522310000000	     79.98024927093986500000	     -0.00000000000000057677	      0.00000000000004815037	    -45.61394093955411200000	     -5.44058517722902920000	     -9.82297017174751370000	    129.34575956428122000000	     86.56956129493150300000	      0.00000000000003322819	     -0.00000000000000456617
      0.81450000000000000000	     -2.38997625029751730000	      2.67583982778948750000	      2.25092552168991040000	      0.95684221977029504000	      1.04749507517306430000	     -0.31430252014305538000	    -10.28760310878638200000	      3.06221668147760880000	      1.45161322891391520000	    -57.32472003921078900000	     -5.99098587067422090000	      0.00000000000003676987	     -0.00000000000017891860	     22.03695218114907200000	      8.14153847125795590000	      1.51096750620757870000	    -11.85958710575957100000	     -7.51248330353399220000	     -0.00000000000003663636	     -0.00000000000003517863	     -5.28023580732751440000	     -0.43020389298175526000	     10.74794859513669500000	    -20.90179248717536000000	    -14.72692591431505300000	      6.43672655260942420000	    128.25910691906685000000	     80.08222578105285500000	     -0.00000000000000056962	      0.00000000000004844122	    -45.50851339720266300000	     -5.45610380108618550000	     -9.80862001454825890000	    129.30842292152713000000	     86.53499567520034900000	      0.00000000000003333243	     -0.00000000000000457096
      0.81550000000000000000	     -2.36509217721346410000	      2.67440951030623220000	      2.29233124875313180000	      0.95682541231592255000	      1.04694480898809550000	     -0.31430975660455385000	    -10.10936447984998500000	      3.07678671952112650000	      1.40989361088152590000	    -57.86043657670546000000	     -5.91410544847654940000	      0.00000000000003704680	     -0.00000000000017975319	     22.02311464149449400000	      8.18207681944931760000	      1.67082426918136860000	    -12.06050902936371600000	     -7.40860282103890190000	     -0.00000000000003679043	     -0.00000000000003534629	     -5.31132762812106660000	     -0.45126579489219082000	     10.67360623943083700000	    -20.97674360583795000000	    -14.69877406608259200000	      6.35594290314370090000	    128.13015921358522000000	     80.18604832852501800000	     -0.00000000000000056298	      0.00000000000004873305	    -45.40097164749111200000	     -5.47352697198282900000	     -9.79281990463960210000	    129.26994463714391000000	     86.50049941449712800000	      0.00000000000003343588	     -0.00000000000000457526
      0.81650000000000000000	     -2.34047433191756720000	      2.67173634274993700000	      2.33431622269449870000	      0.95680600350886758000	      1.04638475849138230000	     -0.31431787194967264000	     -9.92904095911657340000	      3.09228196735977970000	      1.36708886207818760000	    -58.39599035998038800000	     -5.83802136574769030000	      0.00000000000003732218	     -0.00000000000018058778	     22.01123935250185300000	      8.22231183525513560000	      1.83427849789382020000	    -12.27205167725083400000	     -7.29004132799337870000	     -0.00000000000003694469	     -0.00000000000003551586	     -5.34241438368546540000	     -0.47082424263862022000	     10.59863846009917600000	    -21.05243939791710500000	    -14.67097732683307900000	      6.27445143920566920000	    128.00116850001186000000	     80.29171998500800100000	     -0.00000000000000055626	      0.00000000000004902578	    -45.29135165595819500000	     -5.49281218947486230000	     -9.77562862396224120000	    129.23032149020767000000	     86.46615875928040400000	      0.00000000000003353911	     -0.00000000000000457966
      0.81750000000000000000	     -2.31622350663333210000	      2.66786873228290180000	      2.37687667130624900000	      0.95678386034719998000	      1.04581479947048650000	     -0.31432698613306204000	     -9.74651692392892600000	      3.10859738573948310000	      1.32315960259296550000	    -58.93139624090411400000	     -5.76259892225329920000	      0.00000000000003759702	     -0.00000000000018142203	     22.00148509856223800000	      8.26234357766617040000	      2.00090122736209520000	    -12.49429069082108000000	     -7.15630667704102400000	     -0.00000000000003709746	     -0.00000000000003568423	     -5.37340138247950080000	     -0.48891806808299582000	     10.52303224107015500000	    -21.12884821653156600000	    -14.64356390878664400000	      6.19230738503077660000	    127.87215200821984000000	     80.39924083070130200000	     -0.00000000000000054935	      0.00000000000004931846	    -45.17968929748473500000	     -5.51391353214438860000	     -9.75710356255548380000	    129.18954415948306000000	     86.43206047431492300000	      0.00000000000003364233	     -0.00000000000000458377
      0.81850000000000001000	     -2.29246060741868000000	      2.66285956561943580000	      2.42001005010159180000	      0.95675882968726911000	      1.04523478722260890000	     -0.31433722129801195000	     -9.56165206344139130000	      3.12562145367952170000	      1.27806848069850700000	    -59.46667858206921400000	     -5.68771181191274700000	      0.00000000000003787329	     -0.00000000000018225541	     21.99403736566865300000	      8.30227769612815080000	      2.17025695598228910000	    -12.72730191342428400000	     -7.00697707244937100000	     -0.00000000000003725033	     -0.00000000000003585035	     -5.40417423535943710000	     -0.50559241148636536000	     10.44677220779328900000	    -21.20593631782814000000	    -14.61656063158912400000	      6.10956400697599110000	    127.74312002842380000000	     80.50860897675276800000	     -0.00000000000000054241	      0.00000000000004961130	    -45.06601901611874400000	     -5.53678501084717480000	     -9.73730283628133900000	    129.14759997079463000000	     86.39828963002550200000	      0.00000000000003374502	     -0.00000000000000458781
      0.81950000000000001000	     -2.26931464535501480000	      2.65676752083363700000	      2.46371492252265600000	      0.95673074107574840000	      1.04464457710160750000	     -0.31434870098498807000	     -9.37429594114298760000	      3.14323533887624770000	      1.23178017876142240000	    -60.00186711488061800000	     -5.61324381784838170000	      0.00000000000003815052	     -0.00000000000018308862	     21.98909325024303000000	      8.34222591440454760000	      2.34190527833037890000	    -12.97115594660268600000	     -6.84171386328430490000	     -0.00000000000003740346	     -0.00000000000003601466	     -5.43461249643230370000	     -0.52089973924980648000	     10.36984013842071800000	    -21.28366578038289300000	    -14.58999315799080200000	      6.02627243465879660000	    127.61407636289317000000	     80.61981983933853300000	     -0.00000000000000053540	      0.00000000000004990393	    -44.95037181628037400000	     -5.56138061136466000000	     -9.71628500061198790000	    129.10447343407722000000	     86.36492923445324300000	      0.00000000000003384757	     -0.00000000000000459272
      0.82050000000000001000	     -2.24690915734297290000	      2.64965920838110150000	      2.50799068855844930000	      0.95669940986225299000	      1.04404404767294330000	     -0.31436154915797354000	     -9.18430437204196610000	      3.16131125588709460000	      1.18426124515529610000	    -60.53699238012841000000	     -5.53909013470116210000	      0.00000000000003842962	     -0.00000000000018392327	     21.98684438413171100000	      8.38230715707824810000	      2.51540254738902340000	    -13.22591186484210400000	     -6.66027125028428200000	     -0.00000000000003755654	     -0.00000000000003617884	     -5.46460494618163310000	     -0.53490163025223325000	     10.29221452805173900000	    -21.36199229981408700000	    -14.56388611590790200000	      5.94248156200683740000	    127.48501887678231000000	     80.73286540128869100000	     -0.00000000000000052814	      0.00000000000005019649	    -44.83277323716426800000	     -5.58765438446752950000	     -9.69410883574964720000	    129.06014696483166000000	     86.33205977066180000000	      0.00000000000003395033	     -0.00000000000000459745
